<?xml version="1.0" encoding="utf-8"?>
<svg fill="#3B82F6" width="800px" height="800px" viewBox="0 0 24 24" id="Layer_1" data-name="Layer 1" xmlns="http://www.w3.org/2000/svg">
  <g id="SVGRepo_bgCarrier" stroke-width="0"/>
  <g id="SVGRepo_tracerCarrier" stroke-linecap="round" stroke-linejoin="round"/>
  <g id="SVGRepo_iconCarrier">
    <path d="M 20.466 1.967 L 14.78 0.221 C 12.169 -0.574 9.402 0.866 8.556 3.461 L 8.368 4 L 5 4 C 2.24 4.003 0.003 6.24 0 9 L 0 19 C 0.003 21.76 2.24 23.997 5 24 L 11 24 C 12.535 23.995 13.982 23.281 14.92 22.066 C 15.148 22.099 15.378 22.116 15.609 22.118 C 17.814 22.12 19.758 20.67 20.384 18.555 L 23.8 8.156 C 24.559 5.529 23.077 2.778 20.466 1.967 Z M 11 22 L 5 22 C 3.343 22 2 20.657 2 19 L 2 9 C 2 7.343 3.343 6 5 6 L 11 6 C 12.657 6 14 7.343 14 9 L 14 19 C 14 20.657 12.657 22 11 22 Z M 21.887 7.563 L 18.475 17.963 C 18.128 19.14 17.097 19.986 15.875 20.097 C 15.957 19.737 15.999 19.369 16 19 L 16 9 C 15.997 6.24 13.76 4.003 11 4 L 10.493 4 C 11.029 2.489 12.659 1.667 14.193 2.133 L 19.879 3.879 C 21.436 4.36 22.327 5.994 21.887 7.563 Z"/>
  </g>
</svg>